<!DOCTYPE svg PUBLIC "-//W3C//DTD SVG 1.1//EN" "http://www.w3.org/Graphics/SVG/1.1/DTD/svg11.dtd">
<!-- Uploaded to: SVG Repo, www.svgrepo.com, Transformed by: SVG Repo Mixer Tools -->
<svg version="1.1" id="Icons" xmlns="http://www.w3.org/2000/svg" xmlns:xlink="http://www.w3.org/1999/xlink" viewBox="0 0 32 32" xml:space="preserve" width="128px" height="128px" fill="#000000">
<g id="SVGRepo_bgCarrier" stroke-width="0"/>
<g id="SVGRepo_tracerCarrier" stroke-linecap="round" stroke-linejoin="round"/>
<g id="SVGRepo_iconCarrier"> <style type="text/css"> .st0{fill:none;stroke:#ffffff;stroke-width:2;stroke-linecap:round;stroke-linejoin:round;stroke-miterlimit:10;} .st1{fill:none;stroke:#ffffff;stroke-width:2;stroke-linejoin:round;stroke-miterlimit:10;} </style> <line class="st0" x1="11" y1="15" x2="21" y2="15"/> <path class="st0" d="M24,11H8c-1.1,0-2,0.9-2,2v9c0,1.1,0.9,2,2,2h3.9c0.5,0,1-0.2,1.4-0.6l1.2-1.2c0.8-0.8,2-0.8,2.8,0l1.2,1.2 c0.4,0.4,0.9,0.6,1.4,0.6H24c1.1,0,2-0.9,2-2v-9C26,11.9,25.1,11,24,11z"/> <rect x="3" y="14" class="st0" width="3" height="7"/> <rect x="26" y="14" class="st0" width="3" height="7"/> </g>
</svg>